<mxfile host="app.diagrams.net" modified="2021-09-08T05:41:26.894Z" agent="5.0 (Windows NT 10.0; WOW64) AppleWebKit/537.36 (KHTML, like Gecko) Chrome/93.0.4577.63 Safari/537.36" etag="azGdR9KO93NZcuKXbRys" version="15.0.4" type="github" pages="3">
  <diagram id="8xhZgCYeq6x4TM1jQ4sX" name="Page-1">
    <mxGraphModel dx="1955" dy="2215" grid="1" gridSize="10" guides="1" tooltips="1" connect="1" arrows="1" fold="1" page="1" pageScale="1" pageWidth="850" pageHeight="1100" math="0" shadow="0">
      <root>
        <mxCell id="0" />
        <mxCell id="1" parent="0" />
        <mxCell id="nmToKbYziR0dqxqyxBGz-2" value="" style="rounded=0;whiteSpace=wrap;html=1;fillColor=#d5e8d4;strokeColor=#82b366;" vertex="1" parent="1">
          <mxGeometry x="560" y="400" width="400" height="200" as="geometry" />
        </mxCell>
        <mxCell id="nmToKbYziR0dqxqyxBGz-24" value="CRC" style="rounded=1;whiteSpace=wrap;html=1;fillColor=#f8cecc;strokeColor=#b85450;gradientColor=#ea6b66;" vertex="1" parent="1">
          <mxGeometry x="850" y="430" width="70" height="20" as="geometry" />
        </mxCell>
        <mxCell id="nmToKbYziR0dqxqyxBGz-25" value="UPDATE_CONFIG_LOG" style="rounded=1;whiteSpace=wrap;html=1;fillColor=#f5f5f5;strokeColor=#666666;gradientColor=#b3b3b3;" vertex="1" parent="1">
          <mxGeometry x="580" y="430" width="140" height="20" as="geometry" />
        </mxCell>
        <mxCell id="nmToKbYziR0dqxqyxBGz-26" value="CONFIG_ID" style="rounded=1;whiteSpace=wrap;html=1;fillColor=#f8cecc;strokeColor=#b85450;gradientColor=#ea6b66;" vertex="1" parent="1">
          <mxGeometry x="770" y="430" width="70" height="20" as="geometry" />
        </mxCell>
        <mxCell id="nmToKbYziR0dqxqyxBGz-27" value="EXPORT_ERROR_LOG" style="rounded=1;whiteSpace=wrap;html=1;fillColor=#f5f5f5;strokeColor=#666666;gradientColor=#b3b3b3;" vertex="1" parent="1">
          <mxGeometry x="580" y="510" width="140" height="20" as="geometry" />
        </mxCell>
        <mxCell id="nmToKbYziR0dqxqyxBGz-28" value="SEE_ERROR_LOG" style="rounded=1;whiteSpace=wrap;html=1;fillColor=#f5f5f5;strokeColor=#666666;gradientColor=#b3b3b3;" vertex="1" parent="1">
          <mxGeometry x="580" y="470" width="140" height="20" as="geometry" />
        </mxCell>
        <mxCell id="nmToKbYziR0dqxqyxBGz-35" value="BACK" style="html=1;shadow=0;dashed=0;align=center;verticalAlign=middle;shape=mxgraph.arrows2.arrow;dy=0.46;dx=16.67;flipH=1;notch=0;fillColor=#f0a30a;strokeColor=#BD7000;fontColor=#000000;" vertex="1" parent="1">
          <mxGeometry x="890" y="400" width="60" height="20" as="geometry" />
        </mxCell>
        <mxCell id="nmToKbYziR0dqxqyxBGz-58" value="" style="group" vertex="1" connectable="0" parent="1">
          <mxGeometry x="140" y="190" width="400" height="200" as="geometry" />
        </mxCell>
        <mxCell id="nmToKbYziR0dqxqyxBGz-1" value="" style="rounded=0;whiteSpace=wrap;html=1;fillColor=#fff2cc;strokeColor=#d6b656;" vertex="1" parent="nmToKbYziR0dqxqyxBGz-58">
          <mxGeometry width="400" height="200" as="geometry" />
        </mxCell>
        <mxCell id="nmToKbYziR0dqxqyxBGz-4" value="USB" style="rounded=1;whiteSpace=wrap;html=1;fillColor=#f5f5f5;strokeColor=#666666;gradientColor=#b3b3b3;" vertex="1" parent="nmToKbYziR0dqxqyxBGz-58">
          <mxGeometry x="20" y="60" width="90" height="20" as="geometry" />
        </mxCell>
        <mxCell id="nmToKbYziR0dqxqyxBGz-5" value="CONNECT" style="rounded=1;whiteSpace=wrap;html=1;fillColor=#f5f5f5;strokeColor=#666666;gradientColor=#b3b3b3;" vertex="1" parent="nmToKbYziR0dqxqyxBGz-58">
          <mxGeometry x="20" y="90" width="90" height="20" as="geometry" />
        </mxCell>
        <mxCell id="nmToKbYziR0dqxqyxBGz-7" value="CRC" style="rounded=1;whiteSpace=wrap;html=1;fillColor=#f8cecc;strokeColor=#b85450;gradientColor=#ea6b66;" vertex="1" parent="nmToKbYziR0dqxqyxBGz-58">
          <mxGeometry x="200" y="30" width="90" height="20" as="geometry" />
        </mxCell>
        <mxCell id="nmToKbYziR0dqxqyxBGz-8" value="HW_VERSION" style="rounded=1;whiteSpace=wrap;html=1;fillColor=#f8cecc;strokeColor=#b85450;gradientColor=#ea6b66;" vertex="1" parent="nmToKbYziR0dqxqyxBGz-58">
          <mxGeometry x="200" y="60" width="90" height="20" as="geometry" />
        </mxCell>
        <mxCell id="nmToKbYziR0dqxqyxBGz-9" value="SW_VERSION" style="rounded=1;whiteSpace=wrap;html=1;fillColor=#f8cecc;strokeColor=#b85450;gradientColor=#ea6b66;" vertex="1" parent="nmToKbYziR0dqxqyxBGz-58">
          <mxGeometry x="200" y="90" width="90" height="20" as="geometry" />
        </mxCell>
        <mxCell id="nmToKbYziR0dqxqyxBGz-10" value="CONFIG_ID" style="rounded=1;whiteSpace=wrap;html=1;fillColor=#f8cecc;strokeColor=#b85450;gradientColor=#ea6b66;" vertex="1" parent="nmToKbYziR0dqxqyxBGz-58">
          <mxGeometry x="200" y="120" width="90" height="20" as="geometry" />
        </mxCell>
        <mxCell id="nmToKbYziR0dqxqyxBGz-48" value="" style="rounded=0;whiteSpace=wrap;html=1;fillColor=#dae8fc;strokeColor=#6c8ebf;" vertex="1" parent="nmToKbYziR0dqxqyxBGz-58">
          <mxGeometry x="330" y="10" width="60" height="20" as="geometry" />
        </mxCell>
        <mxCell id="nmToKbYziR0dqxqyxBGz-51" value="" style="rounded=0;whiteSpace=wrap;html=1;fillColor=#f8cecc;strokeColor=#b85450;" vertex="1" parent="nmToKbYziR0dqxqyxBGz-58">
          <mxGeometry x="330" y="40" width="60" height="20" as="geometry" />
        </mxCell>
        <mxCell id="nmToKbYziR0dqxqyxBGz-59" value="" style="group" vertex="1" connectable="0" parent="1">
          <mxGeometry x="560" y="-12" width="400" height="200" as="geometry" />
        </mxCell>
        <mxCell id="nmToKbYziR0dqxqyxBGz-3" value="" style="rounded=0;whiteSpace=wrap;html=1;fillColor=#dae8fc;strokeColor=#6c8ebf;" vertex="1" parent="nmToKbYziR0dqxqyxBGz-59">
          <mxGeometry width="400" height="200" as="geometry" />
        </mxCell>
        <mxCell id="nmToKbYziR0dqxqyxBGz-14" value="CRC" style="rounded=1;whiteSpace=wrap;html=1;fillColor=#f8cecc;strokeColor=#b85450;gradientColor=#ea6b66;" vertex="1" parent="nmToKbYziR0dqxqyxBGz-59">
          <mxGeometry x="300" y="30" width="70" height="20" as="geometry" />
        </mxCell>
        <mxCell id="nmToKbYziR0dqxqyxBGz-15" value="EOL_CONFIG_LOAD" style="rounded=1;whiteSpace=wrap;html=1;fillColor=#f5f5f5;strokeColor=#666666;gradientColor=#b3b3b3;" vertex="1" parent="nmToKbYziR0dqxqyxBGz-59">
          <mxGeometry x="30" y="30" width="140" height="20" as="geometry" />
        </mxCell>
        <mxCell id="nmToKbYziR0dqxqyxBGz-16" value="CONFIG_ID" style="rounded=1;whiteSpace=wrap;html=1;fillColor=#f8cecc;strokeColor=#b85450;gradientColor=#ea6b66;" vertex="1" parent="nmToKbYziR0dqxqyxBGz-59">
          <mxGeometry x="220" y="30" width="70" height="20" as="geometry" />
        </mxCell>
        <mxCell id="nmToKbYziR0dqxqyxBGz-19" value="CALIBRATE_CURRENT" style="rounded=1;whiteSpace=wrap;html=1;fillColor=#f5f5f5;strokeColor=#666666;gradientColor=#b3b3b3;" vertex="1" parent="nmToKbYziR0dqxqyxBGz-59">
          <mxGeometry x="30" y="60" width="140" height="20" as="geometry" />
        </mxCell>
        <mxCell id="nmToKbYziR0dqxqyxBGz-21" value="CRC" style="rounded=1;whiteSpace=wrap;html=1;fillColor=#f8cecc;strokeColor=#b85450;gradientColor=#ea6b66;" vertex="1" parent="nmToKbYziR0dqxqyxBGz-59">
          <mxGeometry x="300" y="120" width="70" height="20" as="geometry" />
        </mxCell>
        <mxCell id="nmToKbYziR0dqxqyxBGz-22" value="PROD_CONFIG_LOAD" style="rounded=1;whiteSpace=wrap;html=1;fillColor=#f5f5f5;strokeColor=#666666;gradientColor=#b3b3b3;" vertex="1" parent="nmToKbYziR0dqxqyxBGz-59">
          <mxGeometry x="30" y="120" width="140" height="20" as="geometry" />
        </mxCell>
        <mxCell id="nmToKbYziR0dqxqyxBGz-23" value="CONFIG_ID" style="rounded=1;whiteSpace=wrap;html=1;fillColor=#f8cecc;strokeColor=#b85450;gradientColor=#ea6b66;" vertex="1" parent="nmToKbYziR0dqxqyxBGz-59">
          <mxGeometry x="220" y="120" width="70" height="20" as="geometry" />
        </mxCell>
        <mxCell id="nmToKbYziR0dqxqyxBGz-36" value="BACK" style="html=1;shadow=0;dashed=0;align=center;verticalAlign=middle;shape=mxgraph.arrows2.arrow;dy=0.46;dx=16.67;flipH=1;notch=0;fillColor=#f0a30a;strokeColor=#BD7000;fontColor=#000000;" vertex="1" parent="nmToKbYziR0dqxqyxBGz-59">
          <mxGeometry x="330" width="60" height="20" as="geometry" />
        </mxCell>
        <mxCell id="nmToKbYziR0dqxqyxBGz-61" value="" style="group" vertex="1" connectable="0" parent="1">
          <mxGeometry x="970" y="200" width="400" height="200" as="geometry" />
        </mxCell>
        <mxCell id="nmToKbYziR0dqxqyxBGz-29" value="" style="rounded=0;whiteSpace=wrap;html=1;fillColor=#fff2cc;strokeColor=#d6b656;" vertex="1" parent="nmToKbYziR0dqxqyxBGz-61">
          <mxGeometry width="400" height="200" as="geometry" />
        </mxCell>
        <mxCell id="nmToKbYziR0dqxqyxBGz-30" value="FORD EMAIL" style="rounded=1;whiteSpace=wrap;html=1;" vertex="1" parent="nmToKbYziR0dqxqyxBGz-61">
          <mxGeometry x="75" y="40" width="250" height="20" as="geometry" />
        </mxCell>
        <mxCell id="nmToKbYziR0dqxqyxBGz-31" value="PASSWORD" style="rounded=1;whiteSpace=wrap;html=1;" vertex="1" parent="nmToKbYziR0dqxqyxBGz-61">
          <mxGeometry x="75" y="100" width="250" height="20" as="geometry" />
        </mxCell>
        <mxCell id="nmToKbYziR0dqxqyxBGz-32" value="LOGIN" style="rounded=1;whiteSpace=wrap;html=1;fillColor=#f5f5f5;strokeColor=#666666;gradientColor=#b3b3b3;" vertex="1" parent="nmToKbYziR0dqxqyxBGz-61">
          <mxGeometry x="155" y="130" width="90" height="20" as="geometry" />
        </mxCell>
        <mxCell id="nmToKbYziR0dqxqyxBGz-37" value="BACK" style="html=1;shadow=0;dashed=0;align=center;verticalAlign=middle;shape=mxgraph.arrows2.arrow;dy=0.46;dx=16.67;flipH=1;notch=0;fillColor=#f0a30a;strokeColor=#BD7000;fontColor=#000000;" vertex="1" parent="nmToKbYziR0dqxqyxBGz-61">
          <mxGeometry x="330" width="60" height="20" as="geometry" />
        </mxCell>
        <mxCell id="nmToKbYziR0dqxqyxBGz-38" value="FORD ID" style="rounded=1;whiteSpace=wrap;html=1;" vertex="1" parent="nmToKbYziR0dqxqyxBGz-61">
          <mxGeometry x="75" y="70" width="250" height="20" as="geometry" />
        </mxCell>
        <mxCell id="nmToKbYziR0dqxqyxBGz-62" value="" style="group" vertex="1" connectable="0" parent="1">
          <mxGeometry x="1380" y="-10" width="400" height="200" as="geometry" />
        </mxCell>
        <mxCell id="nmToKbYziR0dqxqyxBGz-40" value="" style="rounded=0;whiteSpace=wrap;html=1;fillColor=#dae8fc;strokeColor=#6c8ebf;" vertex="1" parent="nmToKbYziR0dqxqyxBGz-62">
          <mxGeometry width="400" height="200" as="geometry" />
        </mxCell>
        <mxCell id="nmToKbYziR0dqxqyxBGz-41" value="EOL CONFIG" style="rounded=1;whiteSpace=wrap;html=1;" vertex="1" parent="nmToKbYziR0dqxqyxBGz-62">
          <mxGeometry x="25" y="40" width="250" height="20" as="geometry" />
        </mxCell>
        <mxCell id="nmToKbYziR0dqxqyxBGz-42" value="UPDATE_CONFIG" style="rounded=1;whiteSpace=wrap;html=1;" vertex="1" parent="nmToKbYziR0dqxqyxBGz-62">
          <mxGeometry x="25" y="100" width="250" height="20" as="geometry" />
        </mxCell>
        <mxCell id="nmToKbYziR0dqxqyxBGz-43" value="SAVE" style="rounded=1;whiteSpace=wrap;html=1;fillColor=#f5f5f5;strokeColor=#666666;gradientColor=#b3b3b3;" vertex="1" parent="nmToKbYziR0dqxqyxBGz-62">
          <mxGeometry x="105" y="130" width="90" height="20" as="geometry" />
        </mxCell>
        <mxCell id="nmToKbYziR0dqxqyxBGz-44" value="BACK" style="html=1;shadow=0;dashed=0;align=center;verticalAlign=middle;shape=mxgraph.arrows2.arrow;dy=0.46;dx=16.67;flipH=1;notch=0;fillColor=#f0a30a;strokeColor=#BD7000;fontColor=#000000;" vertex="1" parent="nmToKbYziR0dqxqyxBGz-62">
          <mxGeometry x="330" width="60" height="20" as="geometry" />
        </mxCell>
        <mxCell id="nmToKbYziR0dqxqyxBGz-45" value="PRODUCTION_CONFIG" style="rounded=1;whiteSpace=wrap;html=1;" vertex="1" parent="nmToKbYziR0dqxqyxBGz-62">
          <mxGeometry x="25" y="70" width="250" height="20" as="geometry" />
        </mxCell>
        <mxCell id="nmToKbYziR0dqxqyxBGz-63" value="" style="group" vertex="1" connectable="0" parent="1">
          <mxGeometry x="1380" y="410" width="400" height="200" as="geometry" />
        </mxCell>
        <mxCell id="nmToKbYziR0dqxqyxBGz-52" value="" style="rounded=0;whiteSpace=wrap;html=1;fillColor=#d5e8d4;strokeColor=#82b366;" vertex="1" parent="nmToKbYziR0dqxqyxBGz-63">
          <mxGeometry width="400" height="200" as="geometry" />
        </mxCell>
        <mxCell id="nmToKbYziR0dqxqyxBGz-54" value="UPDATE_CONFIG" style="rounded=1;whiteSpace=wrap;html=1;" vertex="1" parent="nmToKbYziR0dqxqyxBGz-63">
          <mxGeometry x="25" y="42" width="250" height="20" as="geometry" />
        </mxCell>
        <mxCell id="nmToKbYziR0dqxqyxBGz-55" value="SAVE" style="rounded=1;whiteSpace=wrap;html=1;fillColor=#f5f5f5;strokeColor=#666666;gradientColor=#b3b3b3;" vertex="1" parent="nmToKbYziR0dqxqyxBGz-63">
          <mxGeometry x="105" y="130" width="90" height="20" as="geometry" />
        </mxCell>
        <mxCell id="nmToKbYziR0dqxqyxBGz-56" value="BACK" style="html=1;shadow=0;dashed=0;align=center;verticalAlign=middle;shape=mxgraph.arrows2.arrow;dy=0.46;dx=16.67;flipH=1;notch=0;fillColor=#f0a30a;strokeColor=#BD7000;fontColor=#000000;" vertex="1" parent="nmToKbYziR0dqxqyxBGz-63">
          <mxGeometry x="330" width="60" height="20" as="geometry" />
        </mxCell>
      </root>
    </mxGraphModel>
  </diagram>
  <diagram id="BRYsAtAZgwUsvA2mFzuX" name="Page-2">
    <mxGraphModel dx="1117" dy="637" grid="1" gridSize="10" guides="1" tooltips="1" connect="1" arrows="1" fold="1" page="1" pageScale="1" pageWidth="850" pageHeight="1100" math="0" shadow="0">
      <root>
        <mxCell id="idPm4ozaNXpUOP-AspOQ-0" />
        <mxCell id="idPm4ozaNXpUOP-AspOQ-1" parent="idPm4ozaNXpUOP-AspOQ-0" />
        <mxCell id="idPm4ozaNXpUOP-AspOQ-9" value="" style="group;fillColor=#cce5ff;strokeColor=#36393d;" vertex="1" connectable="0" parent="idPm4ozaNXpUOP-AspOQ-1">
          <mxGeometry x="140" y="190" width="400" height="200" as="geometry" />
        </mxCell>
        <mxCell id="idPm4ozaNXpUOP-AspOQ-10" value="" style="rounded=0;whiteSpace=wrap;html=1;fillColor=#cce5ff;strokeColor=#36393d;" vertex="1" parent="idPm4ozaNXpUOP-AspOQ-9">
          <mxGeometry width="400" height="200" as="geometry" />
        </mxCell>
        <mxCell id="idPm4ozaNXpUOP-AspOQ-11" value="USB" style="rounded=1;whiteSpace=wrap;html=1;fillColor=#f5f5f5;strokeColor=#666666;gradientColor=#b3b3b3;" vertex="1" parent="idPm4ozaNXpUOP-AspOQ-9">
          <mxGeometry x="20" y="60" width="90" height="20" as="geometry" />
        </mxCell>
        <mxCell id="idPm4ozaNXpUOP-AspOQ-12" value="CONNECT" style="rounded=1;whiteSpace=wrap;html=1;fillColor=#f5f5f5;strokeColor=#666666;gradientColor=#b3b3b3;" vertex="1" parent="idPm4ozaNXpUOP-AspOQ-9">
          <mxGeometry x="20" y="90" width="90" height="20" as="geometry" />
        </mxCell>
        <mxCell id="idPm4ozaNXpUOP-AspOQ-13" value="CRC" style="rounded=1;whiteSpace=wrap;html=1;fillColor=#f8cecc;strokeColor=#b85450;gradientColor=#ea6b66;" vertex="1" parent="idPm4ozaNXpUOP-AspOQ-9">
          <mxGeometry x="200" y="30" width="90" height="20" as="geometry" />
        </mxCell>
        <mxCell id="idPm4ozaNXpUOP-AspOQ-14" value="HW_VERSION" style="rounded=1;whiteSpace=wrap;html=1;fillColor=#f8cecc;strokeColor=#b85450;gradientColor=#ea6b66;" vertex="1" parent="idPm4ozaNXpUOP-AspOQ-9">
          <mxGeometry x="200" y="60" width="90" height="20" as="geometry" />
        </mxCell>
        <mxCell id="idPm4ozaNXpUOP-AspOQ-15" value="SW_VERSION" style="rounded=1;whiteSpace=wrap;html=1;fillColor=#f8cecc;strokeColor=#b85450;gradientColor=#ea6b66;" vertex="1" parent="idPm4ozaNXpUOP-AspOQ-9">
          <mxGeometry x="200" y="90" width="90" height="20" as="geometry" />
        </mxCell>
        <mxCell id="idPm4ozaNXpUOP-AspOQ-16" value="CONFIG_ID" style="rounded=1;whiteSpace=wrap;html=1;fillColor=#f8cecc;strokeColor=#b85450;gradientColor=#ea6b66;" vertex="1" parent="idPm4ozaNXpUOP-AspOQ-9">
          <mxGeometry x="200" y="120" width="90" height="20" as="geometry" />
        </mxCell>
        <mxCell id="idPm4ozaNXpUOP-AspOQ-17" value="CONFIG" style="rounded=0;whiteSpace=wrap;html=1;fillColor=#dae8fc;strokeColor=#6c8ebf;" vertex="1" parent="idPm4ozaNXpUOP-AspOQ-9">
          <mxGeometry x="330" y="40" width="60" height="20" as="geometry" />
        </mxCell>
        <mxCell id="idPm4ozaNXpUOP-AspOQ-18" value="ADMIN" style="rounded=0;whiteSpace=wrap;html=1;fillColor=#f8cecc;strokeColor=#b85450;" vertex="1" parent="idPm4ozaNXpUOP-AspOQ-9">
          <mxGeometry x="330" y="10" width="60" height="20" as="geometry" />
        </mxCell>
        <mxCell id="idPm4ozaNXpUOP-AspOQ-49" value="Window 1- Main" style="text;html=1;strokeColor=none;fillColor=none;align=center;verticalAlign=middle;whiteSpace=wrap;rounded=0;" vertex="1" parent="idPm4ozaNXpUOP-AspOQ-9">
          <mxGeometry x="30" y="180" width="310" height="20" as="geometry" />
        </mxCell>
        <mxCell id="QFgV20JDI4tl1zpTYcrD-3" value="" style="ellipse;whiteSpace=wrap;html=1;aspect=fixed;fillColor=#008a00;strokeColor=#005700;fontColor=#ffffff;" vertex="1" parent="idPm4ozaNXpUOP-AspOQ-9">
          <mxGeometry x="120" y="90" width="18" height="18" as="geometry" />
        </mxCell>
        <mxCell id="idPm4ozaNXpUOP-AspOQ-19" value="" style="group;fillColor=#cce5ff;strokeColor=#36393d;" vertex="1" connectable="0" parent="idPm4ozaNXpUOP-AspOQ-1">
          <mxGeometry x="140" y="400" width="400" height="200" as="geometry" />
        </mxCell>
        <mxCell id="idPm4ozaNXpUOP-AspOQ-20" value="" style="rounded=0;whiteSpace=wrap;html=1;fillColor=#cce5ff;strokeColor=#36393d;" vertex="1" parent="idPm4ozaNXpUOP-AspOQ-19">
          <mxGeometry width="400" height="200" as="geometry" />
        </mxCell>
        <mxCell id="idPm4ozaNXpUOP-AspOQ-21" value="CRC" style="rounded=1;whiteSpace=wrap;html=1;fillColor=#f8cecc;strokeColor=#b85450;gradientColor=#ea6b66;" vertex="1" parent="idPm4ozaNXpUOP-AspOQ-19">
          <mxGeometry x="300" y="30" width="70" height="20" as="geometry" />
        </mxCell>
        <mxCell id="idPm4ozaNXpUOP-AspOQ-22" value="EOL_CONFIG_LOAD" style="rounded=1;whiteSpace=wrap;html=1;fillColor=#f5f5f5;strokeColor=#666666;gradientColor=#b3b3b3;" vertex="1" parent="idPm4ozaNXpUOP-AspOQ-19">
          <mxGeometry x="30" y="30" width="140" height="20" as="geometry" />
        </mxCell>
        <mxCell id="idPm4ozaNXpUOP-AspOQ-23" value="CONFIG_ID" style="rounded=1;whiteSpace=wrap;html=1;fillColor=#f8cecc;strokeColor=#b85450;gradientColor=#ea6b66;" vertex="1" parent="idPm4ozaNXpUOP-AspOQ-19">
          <mxGeometry x="220" y="30" width="70" height="20" as="geometry" />
        </mxCell>
        <mxCell id="idPm4ozaNXpUOP-AspOQ-24" value="CALIBRATE_CURRENT" style="rounded=1;whiteSpace=wrap;html=1;fillColor=#f5f5f5;strokeColor=#666666;gradientColor=#b3b3b3;" vertex="1" parent="idPm4ozaNXpUOP-AspOQ-19">
          <mxGeometry x="30" y="60" width="140" height="20" as="geometry" />
        </mxCell>
        <mxCell id="idPm4ozaNXpUOP-AspOQ-25" value="CRC" style="rounded=1;whiteSpace=wrap;html=1;fillColor=#f8cecc;strokeColor=#b85450;gradientColor=#ea6b66;" vertex="1" parent="idPm4ozaNXpUOP-AspOQ-19">
          <mxGeometry x="300" y="120" width="70" height="20" as="geometry" />
        </mxCell>
        <mxCell id="idPm4ozaNXpUOP-AspOQ-26" value="PROD_CONFIG_LOAD" style="rounded=1;whiteSpace=wrap;html=1;fillColor=#f5f5f5;strokeColor=#666666;gradientColor=#b3b3b3;" vertex="1" parent="idPm4ozaNXpUOP-AspOQ-19">
          <mxGeometry x="30" y="120" width="140" height="20" as="geometry" />
        </mxCell>
        <mxCell id="idPm4ozaNXpUOP-AspOQ-27" value="CONFIG_ID" style="rounded=1;whiteSpace=wrap;html=1;fillColor=#f8cecc;strokeColor=#b85450;gradientColor=#ea6b66;" vertex="1" parent="idPm4ozaNXpUOP-AspOQ-19">
          <mxGeometry x="220" y="120" width="70" height="20" as="geometry" />
        </mxCell>
        <mxCell id="idPm4ozaNXpUOP-AspOQ-28" value="BACK" style="html=1;shadow=0;dashed=0;align=center;verticalAlign=middle;shape=mxgraph.arrows2.arrow;dy=0.46;dx=16.67;flipH=1;notch=0;fillColor=#f0a30a;strokeColor=#BD7000;fontColor=#000000;" vertex="1" parent="idPm4ozaNXpUOP-AspOQ-19">
          <mxGeometry x="330" width="60" height="20" as="geometry" />
        </mxCell>
        <mxCell id="idPm4ozaNXpUOP-AspOQ-51" value="Window 2- Config" style="text;html=1;strokeColor=none;fillColor=none;align=center;verticalAlign=middle;whiteSpace=wrap;rounded=0;" vertex="1" parent="idPm4ozaNXpUOP-AspOQ-19">
          <mxGeometry x="20" y="180" width="310" height="20" as="geometry" />
        </mxCell>
        <mxCell id="idPm4ozaNXpUOP-AspOQ-29" value="" style="group;fillColor=#cce5ff;strokeColor=#36393d;" vertex="1" connectable="0" parent="idPm4ozaNXpUOP-AspOQ-1">
          <mxGeometry x="550" y="190" width="400" height="200" as="geometry" />
        </mxCell>
        <mxCell id="idPm4ozaNXpUOP-AspOQ-30" value="" style="rounded=0;whiteSpace=wrap;html=1;fillColor=#cce5ff;strokeColor=#36393d;" vertex="1" parent="idPm4ozaNXpUOP-AspOQ-29">
          <mxGeometry width="400" height="200" as="geometry" />
        </mxCell>
        <mxCell id="idPm4ozaNXpUOP-AspOQ-31" value="FORD EMAIL" style="rounded=1;whiteSpace=wrap;html=1;" vertex="1" parent="idPm4ozaNXpUOP-AspOQ-29">
          <mxGeometry x="75" y="40" width="250" height="20" as="geometry" />
        </mxCell>
        <mxCell id="idPm4ozaNXpUOP-AspOQ-32" value="PASSWORD" style="rounded=1;whiteSpace=wrap;html=1;" vertex="1" parent="idPm4ozaNXpUOP-AspOQ-29">
          <mxGeometry x="75" y="100" width="250" height="20" as="geometry" />
        </mxCell>
        <mxCell id="idPm4ozaNXpUOP-AspOQ-33" value="LOGIN" style="rounded=1;whiteSpace=wrap;html=1;fillColor=#f5f5f5;strokeColor=#666666;gradientColor=#b3b3b3;" vertex="1" parent="idPm4ozaNXpUOP-AspOQ-29">
          <mxGeometry x="155" y="130" width="90" height="20" as="geometry" />
        </mxCell>
        <mxCell id="idPm4ozaNXpUOP-AspOQ-34" value="BACK" style="html=1;shadow=0;dashed=0;align=center;verticalAlign=middle;shape=mxgraph.arrows2.arrow;dy=0.46;dx=16.67;flipH=1;notch=0;fillColor=#f0a30a;strokeColor=#BD7000;fontColor=#000000;" vertex="1" parent="idPm4ozaNXpUOP-AspOQ-29">
          <mxGeometry x="330" width="60" height="20" as="geometry" />
        </mxCell>
        <mxCell id="idPm4ozaNXpUOP-AspOQ-35" value="FORD ID" style="rounded=1;whiteSpace=wrap;html=1;" vertex="1" parent="idPm4ozaNXpUOP-AspOQ-29">
          <mxGeometry x="75" y="70" width="250" height="20" as="geometry" />
        </mxCell>
        <mxCell id="idPm4ozaNXpUOP-AspOQ-50" value="Window 3- Admin Login" style="text;html=1;strokeColor=none;fillColor=none;align=center;verticalAlign=middle;whiteSpace=wrap;rounded=0;" vertex="1" parent="idPm4ozaNXpUOP-AspOQ-29">
          <mxGeometry x="45" y="180" width="310" height="20" as="geometry" />
        </mxCell>
        <mxCell id="idPm4ozaNXpUOP-AspOQ-36" value="" style="group;fillColor=#cce5ff;strokeColor=#36393d;" vertex="1" connectable="0" parent="idPm4ozaNXpUOP-AspOQ-1">
          <mxGeometry x="550" y="400" width="400" height="200" as="geometry" />
        </mxCell>
        <mxCell id="idPm4ozaNXpUOP-AspOQ-37" value="" style="rounded=0;whiteSpace=wrap;html=1;fillColor=#cce5ff;strokeColor=#36393d;" vertex="1" parent="idPm4ozaNXpUOP-AspOQ-36">
          <mxGeometry width="400" height="200" as="geometry" />
        </mxCell>
        <mxCell id="idPm4ozaNXpUOP-AspOQ-38" value="EOL CONFIG" style="rounded=1;whiteSpace=wrap;html=1;" vertex="1" parent="idPm4ozaNXpUOP-AspOQ-36">
          <mxGeometry x="75" y="40" width="250" height="20" as="geometry" />
        </mxCell>
        <mxCell id="idPm4ozaNXpUOP-AspOQ-40" value="SAVE" style="rounded=1;whiteSpace=wrap;html=1;fillColor=#f5f5f5;strokeColor=#666666;gradientColor=#b3b3b3;" vertex="1" parent="idPm4ozaNXpUOP-AspOQ-36">
          <mxGeometry x="155" y="130" width="90" height="20" as="geometry" />
        </mxCell>
        <mxCell id="idPm4ozaNXpUOP-AspOQ-41" value="BACK" style="html=1;shadow=0;dashed=0;align=center;verticalAlign=middle;shape=mxgraph.arrows2.arrow;dy=0.46;dx=16.67;flipH=1;notch=0;fillColor=#f0a30a;strokeColor=#BD7000;fontColor=#000000;" vertex="1" parent="idPm4ozaNXpUOP-AspOQ-36">
          <mxGeometry x="330" width="60" height="20" as="geometry" />
        </mxCell>
        <mxCell id="idPm4ozaNXpUOP-AspOQ-42" value="PRODUCTION_CONFIG" style="rounded=1;whiteSpace=wrap;html=1;" vertex="1" parent="idPm4ozaNXpUOP-AspOQ-36">
          <mxGeometry x="75" y="70" width="250" height="20" as="geometry" />
        </mxCell>
        <mxCell id="idPm4ozaNXpUOP-AspOQ-52" value="Window 4- Admin Bin Upload" style="text;html=1;strokeColor=none;fillColor=none;align=center;verticalAlign=middle;whiteSpace=wrap;rounded=0;" vertex="1" parent="idPm4ozaNXpUOP-AspOQ-36">
          <mxGeometry x="45" y="180" width="310" height="20" as="geometry" />
        </mxCell>
        <mxCell id="QFgV20JDI4tl1zpTYcrD-0" value="" style="ellipse;whiteSpace=wrap;html=1;aspect=fixed;fillColor=#008a00;strokeColor=#005700;fontColor=#ffffff;" vertex="1" parent="idPm4ozaNXpUOP-AspOQ-1">
          <mxGeometry x="320" y="430" width="18" height="18" as="geometry" />
        </mxCell>
        <mxCell id="QFgV20JDI4tl1zpTYcrD-1" value="" style="ellipse;whiteSpace=wrap;html=1;aspect=fixed;fillColor=#008a00;strokeColor=#005700;fontColor=#ffffff;" vertex="1" parent="idPm4ozaNXpUOP-AspOQ-1">
          <mxGeometry x="320" y="460" width="18" height="18" as="geometry" />
        </mxCell>
        <mxCell id="QFgV20JDI4tl1zpTYcrD-2" value="" style="ellipse;whiteSpace=wrap;html=1;aspect=fixed;fillColor=#008a00;strokeColor=#005700;fontColor=#ffffff;" vertex="1" parent="idPm4ozaNXpUOP-AspOQ-1">
          <mxGeometry x="320" y="520" width="18" height="18" as="geometry" />
        </mxCell>
      </root>
    </mxGraphModel>
  </diagram>
  <diagram id="SxSu8nwbd30xCtE-Ts0Q" name="Page-3">
    <mxGraphModel dx="1117" dy="1737" grid="0" gridSize="10" guides="1" tooltips="1" connect="1" arrows="1" fold="1" page="1" pageScale="1" pageWidth="850" pageHeight="1100" math="0" shadow="0">
      <root>
        <mxCell id="0TemZVlbmZ9FhNo3SsSi-0" />
        <mxCell id="0TemZVlbmZ9FhNo3SsSi-1" parent="0TemZVlbmZ9FhNo3SsSi-0" />
        <mxCell id="0TemZVlbmZ9FhNo3SsSi-9" value="" style="group;fillColor=#d5e8d4;strokeColor=#82b366;" vertex="1" connectable="0" parent="0TemZVlbmZ9FhNo3SsSi-1">
          <mxGeometry x="150" y="400" width="400" height="200" as="geometry" />
        </mxCell>
        <mxCell id="0TemZVlbmZ9FhNo3SsSi-10" value="" style="rounded=0;whiteSpace=wrap;html=1;fillColor=#d5e8d4;strokeColor=#82b366;" vertex="1" parent="0TemZVlbmZ9FhNo3SsSi-9">
          <mxGeometry width="400" height="200" as="geometry" />
        </mxCell>
        <mxCell id="0TemZVlbmZ9FhNo3SsSi-11" value="USB" style="rounded=1;whiteSpace=wrap;html=1;fillColor=#f5f5f5;strokeColor=#666666;gradientColor=#b3b3b3;" vertex="1" parent="0TemZVlbmZ9FhNo3SsSi-9">
          <mxGeometry x="20" y="60" width="90" height="20" as="geometry" />
        </mxCell>
        <mxCell id="0TemZVlbmZ9FhNo3SsSi-12" value="CONNECT" style="rounded=1;whiteSpace=wrap;html=1;fillColor=#f5f5f5;strokeColor=#666666;gradientColor=#b3b3b3;" vertex="1" parent="0TemZVlbmZ9FhNo3SsSi-9">
          <mxGeometry x="20" y="90" width="90" height="20" as="geometry" />
        </mxCell>
        <mxCell id="0TemZVlbmZ9FhNo3SsSi-13" value="CRC" style="rounded=1;whiteSpace=wrap;html=1;fillColor=#f8cecc;strokeColor=#b85450;gradientColor=#ea6b66;" vertex="1" parent="0TemZVlbmZ9FhNo3SsSi-9">
          <mxGeometry x="200" y="30" width="90" height="20" as="geometry" />
        </mxCell>
        <mxCell id="0TemZVlbmZ9FhNo3SsSi-14" value="HW_VERSION" style="rounded=1;whiteSpace=wrap;html=1;fillColor=#f8cecc;strokeColor=#b85450;gradientColor=#ea6b66;" vertex="1" parent="0TemZVlbmZ9FhNo3SsSi-9">
          <mxGeometry x="200" y="60" width="90" height="20" as="geometry" />
        </mxCell>
        <mxCell id="0TemZVlbmZ9FhNo3SsSi-15" value="SW_VERSION" style="rounded=1;whiteSpace=wrap;html=1;fillColor=#f8cecc;strokeColor=#b85450;gradientColor=#ea6b66;" vertex="1" parent="0TemZVlbmZ9FhNo3SsSi-9">
          <mxGeometry x="200" y="90" width="90" height="20" as="geometry" />
        </mxCell>
        <mxCell id="0TemZVlbmZ9FhNo3SsSi-16" value="CONFIG_ID" style="rounded=1;whiteSpace=wrap;html=1;fillColor=#f8cecc;strokeColor=#b85450;gradientColor=#ea6b66;" vertex="1" parent="0TemZVlbmZ9FhNo3SsSi-9">
          <mxGeometry x="200" y="120" width="90" height="20" as="geometry" />
        </mxCell>
        <mxCell id="0TemZVlbmZ9FhNo3SsSi-17" value="SERVICE" style="rounded=0;whiteSpace=wrap;html=1;fillColor=#dae8fc;strokeColor=#6c8ebf;" vertex="1" parent="0TemZVlbmZ9FhNo3SsSi-9">
          <mxGeometry x="330" y="36" width="60" height="20" as="geometry" />
        </mxCell>
        <mxCell id="0TemZVlbmZ9FhNo3SsSi-18" value="ADMIN" style="rounded=0;whiteSpace=wrap;html=1;fillColor=#f8cecc;strokeColor=#b85450;" vertex="1" parent="0TemZVlbmZ9FhNo3SsSi-9">
          <mxGeometry x="330" y="10" width="60" height="20" as="geometry" />
        </mxCell>
        <mxCell id="m3hRIWdMejhy2M7gOYC3-0" value="" style="ellipse;whiteSpace=wrap;html=1;aspect=fixed;fillColor=#008a00;strokeColor=#005700;fontColor=#ffffff;" vertex="1" parent="0TemZVlbmZ9FhNo3SsSi-9">
          <mxGeometry x="117" y="90" width="18" height="18" as="geometry" />
        </mxCell>
        <mxCell id="0TemZVlbmZ9FhNo3SsSi-19" value="" style="group" vertex="1" connectable="0" parent="0TemZVlbmZ9FhNo3SsSi-1">
          <mxGeometry x="560" y="-12" width="400" height="200" as="geometry" />
        </mxCell>
        <mxCell id="0TemZVlbmZ9FhNo3SsSi-20" value="" style="rounded=0;whiteSpace=wrap;html=1;fillColor=#dae8fc;strokeColor=#6c8ebf;" vertex="1" parent="0TemZVlbmZ9FhNo3SsSi-19">
          <mxGeometry width="400" height="200" as="geometry" />
        </mxCell>
        <mxCell id="0TemZVlbmZ9FhNo3SsSi-21" value="CRC" style="rounded=1;whiteSpace=wrap;html=1;fillColor=#f8cecc;strokeColor=#b85450;gradientColor=#ea6b66;" vertex="1" parent="0TemZVlbmZ9FhNo3SsSi-19">
          <mxGeometry x="300" y="30" width="70" height="20" as="geometry" />
        </mxCell>
        <mxCell id="0TemZVlbmZ9FhNo3SsSi-22" value="EOL_CONFIG_LOAD" style="rounded=1;whiteSpace=wrap;html=1;fillColor=#f5f5f5;strokeColor=#666666;gradientColor=#b3b3b3;" vertex="1" parent="0TemZVlbmZ9FhNo3SsSi-19">
          <mxGeometry x="30" y="30" width="140" height="20" as="geometry" />
        </mxCell>
        <mxCell id="0TemZVlbmZ9FhNo3SsSi-23" value="CONFIG_ID" style="rounded=1;whiteSpace=wrap;html=1;fillColor=#f8cecc;strokeColor=#b85450;gradientColor=#ea6b66;" vertex="1" parent="0TemZVlbmZ9FhNo3SsSi-19">
          <mxGeometry x="220" y="30" width="70" height="20" as="geometry" />
        </mxCell>
        <mxCell id="0TemZVlbmZ9FhNo3SsSi-24" value="CALIBRATE_CURRENT" style="rounded=1;whiteSpace=wrap;html=1;fillColor=#f5f5f5;strokeColor=#666666;gradientColor=#b3b3b3;" vertex="1" parent="0TemZVlbmZ9FhNo3SsSi-19">
          <mxGeometry x="30" y="60" width="140" height="20" as="geometry" />
        </mxCell>
        <mxCell id="0TemZVlbmZ9FhNo3SsSi-25" value="CRC" style="rounded=1;whiteSpace=wrap;html=1;fillColor=#f8cecc;strokeColor=#b85450;gradientColor=#ea6b66;" vertex="1" parent="0TemZVlbmZ9FhNo3SsSi-19">
          <mxGeometry x="300" y="120" width="70" height="20" as="geometry" />
        </mxCell>
        <mxCell id="0TemZVlbmZ9FhNo3SsSi-26" value="PROD_CONFIG_LOAD" style="rounded=1;whiteSpace=wrap;html=1;fillColor=#f5f5f5;strokeColor=#666666;gradientColor=#b3b3b3;" vertex="1" parent="0TemZVlbmZ9FhNo3SsSi-19">
          <mxGeometry x="30" y="120" width="140" height="20" as="geometry" />
        </mxCell>
        <mxCell id="0TemZVlbmZ9FhNo3SsSi-27" value="CONFIG_ID" style="rounded=1;whiteSpace=wrap;html=1;fillColor=#f8cecc;strokeColor=#b85450;gradientColor=#ea6b66;" vertex="1" parent="0TemZVlbmZ9FhNo3SsSi-19">
          <mxGeometry x="220" y="120" width="70" height="20" as="geometry" />
        </mxCell>
        <mxCell id="0TemZVlbmZ9FhNo3SsSi-28" value="BACK" style="html=1;shadow=0;dashed=0;align=center;verticalAlign=middle;shape=mxgraph.arrows2.arrow;dy=0.46;dx=16.67;flipH=1;notch=0;fillColor=#f0a30a;strokeColor=#BD7000;fontColor=#000000;" vertex="1" parent="0TemZVlbmZ9FhNo3SsSi-19">
          <mxGeometry x="330" width="60" height="20" as="geometry" />
        </mxCell>
        <mxCell id="0TemZVlbmZ9FhNo3SsSi-29" value="" style="group;fillColor=#d5e8d4;strokeColor=#82b366;" vertex="1" connectable="0" parent="0TemZVlbmZ9FhNo3SsSi-1">
          <mxGeometry x="554" y="400" width="400" height="200" as="geometry" />
        </mxCell>
        <mxCell id="0TemZVlbmZ9FhNo3SsSi-30" value="" style="rounded=0;whiteSpace=wrap;html=1;fillColor=#d5e8d4;strokeColor=#82b366;container=1;" vertex="1" parent="0TemZVlbmZ9FhNo3SsSi-29">
          <mxGeometry width="400" height="200" as="geometry" />
        </mxCell>
        <mxCell id="4_iXuXWhZrpDIpIX1Kz1-5" value="Window 3- Admin Login" style="text;html=1;strokeColor=none;fillColor=none;align=center;verticalAlign=middle;whiteSpace=wrap;rounded=0;" vertex="1" parent="0TemZVlbmZ9FhNo3SsSi-30">
          <mxGeometry x="36" y="180" width="310" height="20" as="geometry" />
        </mxCell>
        <mxCell id="0TemZVlbmZ9FhNo3SsSi-31" value="FORD EMAIL" style="rounded=1;whiteSpace=wrap;html=1;" vertex="1" parent="0TemZVlbmZ9FhNo3SsSi-29">
          <mxGeometry x="75" y="40" width="250" height="20" as="geometry" />
        </mxCell>
        <mxCell id="0TemZVlbmZ9FhNo3SsSi-32" value="PASSWORD" style="rounded=1;whiteSpace=wrap;html=1;" vertex="1" parent="0TemZVlbmZ9FhNo3SsSi-29">
          <mxGeometry x="75" y="100" width="250" height="20" as="geometry" />
        </mxCell>
        <mxCell id="0TemZVlbmZ9FhNo3SsSi-33" value="LOGIN" style="rounded=1;whiteSpace=wrap;html=1;fillColor=#f5f5f5;strokeColor=#666666;gradientColor=#b3b3b3;" vertex="1" parent="0TemZVlbmZ9FhNo3SsSi-29">
          <mxGeometry x="155" y="130" width="90" height="20" as="geometry" />
        </mxCell>
        <mxCell id="0TemZVlbmZ9FhNo3SsSi-34" value="BACK" style="html=1;shadow=0;dashed=0;align=center;verticalAlign=middle;shape=mxgraph.arrows2.arrow;dy=0.46;dx=16.67;flipH=1;notch=0;fillColor=#f0a30a;strokeColor=#BD7000;fontColor=#000000;" vertex="1" parent="0TemZVlbmZ9FhNo3SsSi-29">
          <mxGeometry x="330" width="60" height="20" as="geometry" />
        </mxCell>
        <mxCell id="0TemZVlbmZ9FhNo3SsSi-35" value="FORD ID" style="rounded=1;whiteSpace=wrap;html=1;" vertex="1" parent="0TemZVlbmZ9FhNo3SsSi-29">
          <mxGeometry x="75" y="70" width="250" height="20" as="geometry" />
        </mxCell>
        <mxCell id="0TemZVlbmZ9FhNo3SsSi-36" value="" style="group" vertex="1" connectable="0" parent="0TemZVlbmZ9FhNo3SsSi-1">
          <mxGeometry x="1380" y="-10" width="400" height="200" as="geometry" />
        </mxCell>
        <mxCell id="0TemZVlbmZ9FhNo3SsSi-37" value="" style="rounded=0;whiteSpace=wrap;html=1;fillColor=#dae8fc;strokeColor=#6c8ebf;" vertex="1" parent="0TemZVlbmZ9FhNo3SsSi-36">
          <mxGeometry width="400" height="200" as="geometry" />
        </mxCell>
        <mxCell id="0TemZVlbmZ9FhNo3SsSi-38" value="EOL CONFIG" style="rounded=1;whiteSpace=wrap;html=1;" vertex="1" parent="0TemZVlbmZ9FhNo3SsSi-36">
          <mxGeometry x="25" y="40" width="250" height="20" as="geometry" />
        </mxCell>
        <mxCell id="0TemZVlbmZ9FhNo3SsSi-39" value="UPDATE_CONFIG" style="rounded=1;whiteSpace=wrap;html=1;" vertex="1" parent="0TemZVlbmZ9FhNo3SsSi-36">
          <mxGeometry x="25" y="100" width="250" height="20" as="geometry" />
        </mxCell>
        <mxCell id="0TemZVlbmZ9FhNo3SsSi-40" value="SAVE" style="rounded=1;whiteSpace=wrap;html=1;fillColor=#f5f5f5;strokeColor=#666666;gradientColor=#b3b3b3;" vertex="1" parent="0TemZVlbmZ9FhNo3SsSi-36">
          <mxGeometry x="105" y="130" width="90" height="20" as="geometry" />
        </mxCell>
        <mxCell id="0TemZVlbmZ9FhNo3SsSi-41" value="BACK" style="html=1;shadow=0;dashed=0;align=center;verticalAlign=middle;shape=mxgraph.arrows2.arrow;dy=0.46;dx=16.67;flipH=1;notch=0;fillColor=#f0a30a;strokeColor=#BD7000;fontColor=#000000;" vertex="1" parent="0TemZVlbmZ9FhNo3SsSi-36">
          <mxGeometry x="330" width="60" height="20" as="geometry" />
        </mxCell>
        <mxCell id="0TemZVlbmZ9FhNo3SsSi-42" value="PRODUCTION_CONFIG" style="rounded=1;whiteSpace=wrap;html=1;" vertex="1" parent="0TemZVlbmZ9FhNo3SsSi-36">
          <mxGeometry x="25" y="70" width="250" height="20" as="geometry" />
        </mxCell>
        <mxCell id="0TemZVlbmZ9FhNo3SsSi-43" value="" style="group;fillColor=#fff2cc;strokeColor=#d6b656;" vertex="1" connectable="0" parent="0TemZVlbmZ9FhNo3SsSi-1">
          <mxGeometry x="554" y="605" width="400" height="200" as="geometry" />
        </mxCell>
        <mxCell id="0TemZVlbmZ9FhNo3SsSi-44" value="" style="rounded=0;whiteSpace=wrap;html=1;fillColor=#d5e8d4;strokeColor=#82b366;" vertex="1" parent="0TemZVlbmZ9FhNo3SsSi-43">
          <mxGeometry width="400" height="200" as="geometry" />
        </mxCell>
        <mxCell id="0TemZVlbmZ9FhNo3SsSi-45" value="UPDATE_CONFIG" style="rounded=1;whiteSpace=wrap;html=1;" vertex="1" parent="0TemZVlbmZ9FhNo3SsSi-43">
          <mxGeometry x="25" y="42" width="250" height="20" as="geometry" />
        </mxCell>
        <mxCell id="0TemZVlbmZ9FhNo3SsSi-46" value="SAVE" style="rounded=1;whiteSpace=wrap;html=1;fillColor=#f5f5f5;strokeColor=#666666;gradientColor=#b3b3b3;" vertex="1" parent="0TemZVlbmZ9FhNo3SsSi-43">
          <mxGeometry x="105" y="130" width="90" height="20" as="geometry" />
        </mxCell>
        <mxCell id="0TemZVlbmZ9FhNo3SsSi-47" value="BACK" style="html=1;shadow=0;dashed=0;align=center;verticalAlign=middle;shape=mxgraph.arrows2.arrow;dy=0.46;dx=16.67;flipH=1;notch=0;fillColor=#f0a30a;strokeColor=#BD7000;fontColor=#000000;" vertex="1" parent="0TemZVlbmZ9FhNo3SsSi-43">
          <mxGeometry x="330" width="60" height="20" as="geometry" />
        </mxCell>
        <mxCell id="4_iXuXWhZrpDIpIX1Kz1-0" value="Window 1- Main" style="text;html=1;strokeColor=none;fillColor=none;align=center;verticalAlign=middle;whiteSpace=wrap;rounded=0;" vertex="1" parent="0TemZVlbmZ9FhNo3SsSi-1">
          <mxGeometry x="195" y="580" width="310" height="20" as="geometry" />
        </mxCell>
        <mxCell id="4_iXuXWhZrpDIpIX1Kz1-1" value="Window 1- Main" style="text;html=1;strokeColor=none;fillColor=none;align=center;verticalAlign=middle;whiteSpace=wrap;rounded=0;" vertex="1" parent="0TemZVlbmZ9FhNo3SsSi-1">
          <mxGeometry x="546" y="254" width="310" height="20" as="geometry" />
        </mxCell>
        <mxCell id="4_iXuXWhZrpDIpIX1Kz1-3" value="" style="group" vertex="1" connectable="0" parent="0TemZVlbmZ9FhNo3SsSi-1">
          <mxGeometry x="150" y="605" width="400" height="200" as="geometry" />
        </mxCell>
        <mxCell id="0TemZVlbmZ9FhNo3SsSi-2" value="" style="rounded=0;whiteSpace=wrap;html=1;fillColor=#d5e8d4;strokeColor=#82b366;container=1;" vertex="1" parent="4_iXuXWhZrpDIpIX1Kz1-3">
          <mxGeometry width="400" height="200" as="geometry" />
        </mxCell>
        <mxCell id="4_iXuXWhZrpDIpIX1Kz1-4" value="Window 2- Config" style="text;html=1;strokeColor=none;fillColor=none;align=center;verticalAlign=middle;whiteSpace=wrap;rounded=0;" vertex="1" parent="0TemZVlbmZ9FhNo3SsSi-2">
          <mxGeometry x="41" y="180" width="310" height="20" as="geometry" />
        </mxCell>
        <mxCell id="4_iXuXWhZrpDIpIX1Kz1-2" value="" style="group" vertex="1" connectable="0" parent="4_iXuXWhZrpDIpIX1Kz1-3">
          <mxGeometry x="20" width="370" height="130" as="geometry" />
        </mxCell>
        <mxCell id="0TemZVlbmZ9FhNo3SsSi-3" value="CRC" style="rounded=1;whiteSpace=wrap;html=1;fillColor=#f8cecc;strokeColor=#b85450;gradientColor=#ea6b66;" vertex="1" parent="4_iXuXWhZrpDIpIX1Kz1-2">
          <mxGeometry x="270" y="30" width="70" height="20" as="geometry" />
        </mxCell>
        <mxCell id="0TemZVlbmZ9FhNo3SsSi-4" value="UPDATE_CONFIG_LOG" style="rounded=1;whiteSpace=wrap;html=1;fillColor=#f5f5f5;strokeColor=#666666;gradientColor=#b3b3b3;" vertex="1" parent="4_iXuXWhZrpDIpIX1Kz1-2">
          <mxGeometry y="30" width="140" height="20" as="geometry" />
        </mxCell>
        <mxCell id="0TemZVlbmZ9FhNo3SsSi-5" value="CONFIG_ID" style="rounded=1;whiteSpace=wrap;html=1;fillColor=#f8cecc;strokeColor=#b85450;gradientColor=#ea6b66;" vertex="1" parent="4_iXuXWhZrpDIpIX1Kz1-2">
          <mxGeometry x="190" y="30" width="70" height="20" as="geometry" />
        </mxCell>
        <mxCell id="0TemZVlbmZ9FhNo3SsSi-6" value="EXPORT_ERROR_LOG" style="rounded=1;whiteSpace=wrap;html=1;fillColor=#f5f5f5;strokeColor=#666666;gradientColor=#b3b3b3;" vertex="1" parent="4_iXuXWhZrpDIpIX1Kz1-2">
          <mxGeometry y="110" width="140" height="20" as="geometry" />
        </mxCell>
        <mxCell id="0TemZVlbmZ9FhNo3SsSi-7" value="SEE_ERROR_LOG" style="rounded=1;whiteSpace=wrap;html=1;fillColor=#f5f5f5;strokeColor=#666666;gradientColor=#b3b3b3;" vertex="1" parent="4_iXuXWhZrpDIpIX1Kz1-2">
          <mxGeometry y="70" width="140" height="20" as="geometry" />
        </mxCell>
        <mxCell id="0TemZVlbmZ9FhNo3SsSi-8" value="BACK" style="html=1;shadow=0;dashed=0;align=center;verticalAlign=middle;shape=mxgraph.arrows2.arrow;dy=0.46;dx=16.67;flipH=1;notch=0;fillColor=#f0a30a;strokeColor=#BD7000;fontColor=#000000;" vertex="1" parent="4_iXuXWhZrpDIpIX1Kz1-2">
          <mxGeometry x="310" width="60" height="20" as="geometry" />
        </mxCell>
        <mxCell id="m3hRIWdMejhy2M7gOYC3-1" value="" style="ellipse;whiteSpace=wrap;html=1;aspect=fixed;fillColor=#008a00;strokeColor=#005700;fontColor=#ffffff;" vertex="1" parent="4_iXuXWhZrpDIpIX1Kz1-2">
          <mxGeometry x="156" y="31" width="18" height="18" as="geometry" />
        </mxCell>
        <mxCell id="4_iXuXWhZrpDIpIX1Kz1-6" value="Window 4- Admin Bin Upload" style="text;html=1;strokeColor=none;fillColor=none;align=center;verticalAlign=middle;whiteSpace=wrap;rounded=0;" vertex="1" parent="0TemZVlbmZ9FhNo3SsSi-1">
          <mxGeometry x="590" y="785" width="310" height="20" as="geometry" />
        </mxCell>
      </root>
    </mxGraphModel>
  </diagram>
</mxfile>
